<svg xmlns="http://www.w3.org/2000/svg" viewBox="0 0 400 400" role="img" aria-labelledby="title">
  <title id="title">Ziarra</title>
  <rect width="400" height="400" fill="#000"/>
  <rect
    x="39"
    y="54"
    width="322"
    height="284"
    rx="68"
    fill="none"
    stroke="#ffb800"
    stroke-width="8"
  />
  <g
    fill="none"
    stroke="#ffb800"
    stroke-width="16"
    stroke-linecap="round"
    stroke-linejoin="round"
  >
    <path d="M198 101c28 0 48 19 48 44 0 16-8 28-20 40l-51 52c-12 12-19 23-19 38 0 24 18 42 42 42s42-18 42-42c0-15-8-27-20-39l-51-52c-12-12-19-24-19-39 0-25 20-44 48-44Z"/>
    <path d="M87 202c0-27 20-46 45-46 16 0 28 8 40 20l53 51c12 12 24 19 40 19 25 0 45-19 45-44s-20-44-45-44c-16 0-28 7-40 19l-53 51c-12 12-24 20-40 20-25 0-45-19-45-46Z"/>
  </g>
  <circle cx="198" cy="133" r="10" fill="#ffb800"/>
  <circle cx="198" cy="267" r="10" fill="#ffb800"/>
  <circle cx="124" cy="202" r="10" fill="#ffb800"/>
  <circle cx="272" cy="202" r="10" fill="#ffb800"/>
</svg>
